<svg xmlns="http://www.w3.org/2000/svg" viewBox="0 0 256 256" role="img" aria-labelledby="title desc">
  <title id="title">Iron Log icon</title>
  <desc id="desc">Rounded square icon with a warm orange gradient and a stylized dumbbell.</desc>
  <defs>
    <linearGradient id="bg" x1="0" y1="0" x2="1" y2="1">
      <stop offset="0%" stop-color="#f97316" />
      <stop offset="100%" stop-color="#fb923c" />
    </linearGradient>
    <linearGradient id="shine" x1="0" y1="0" x2="1" y2="1">
      <stop offset="0%" stop-color="rgba(255,255,255,0.38)" />
      <stop offset="100%" stop-color="rgba(255,255,255,0)" />
    </linearGradient>
  </defs>
  <rect width="256" height="256" rx="56" fill="#020617" />
  <rect x="20" y="20" width="216" height="216" rx="44" fill="url(#bg)" />
  <path d="M66 96h18v64H66zm28-18h18v100H94zm50 38h-32v24h32zm10-38h18v100h-18zm28 18h18v64h-18z" fill="#0f172a" />
  <path d="M42 42c42 8 86 33 132 74 17 15 31 31 40 49V56c0-8-6-14-14-14Z" fill="url(#shine)" opacity=".45" />
</svg>
